<svg xmlns="http://www.w3.org/2000/svg" xmlns:xlink="http://www.w3.org/1999/xlink" width="41.256" height="40.674" viewBox="0 0 41.256 40.674">
  <defs>
    <filter id="Icon_awesome-github" x="0" y="0" width="41.256" height="40.674" filterUnits="userSpaceOnUse">
      <feOffset dy="3" input="SourceAlpha"/>
      <feGaussianBlur stdDeviation="3" result="blur"/>
      <feFlood flood-opacity="0.161"/>
      <feComposite operator="in" in2="blur"/>
      <feComposite in="SourceGraphic"/>
    </filter>
  </defs>
  <g transform="matrix(1, 0, 0, 1, 0, 0)" filter="url(#Icon_awesome-github)">
    <path id="Icon_awesome-github-2" data-name="Icon awesome-github" d="M7.778,18.82c0,.094-.108.169-.244.169-.155.014-.263-.061-.263-.169s.108-.169.244-.169S7.778,18.712,7.778,18.82ZM6.32,18.609c-.033.094.061.2.2.23a.22.22,0,0,0,.291-.094c.028-.094-.061-.2-.2-.244A.241.241,0,0,0,6.32,18.609Zm2.072-.08c-.136.033-.23.122-.216.23s.136.155.277.122.23-.122.216-.216S8.529,18.515,8.393,18.529ZM11.478.563A11.243,11.243,0,0,0,0,12,11.755,11.755,0,0,0,7.947,23.218c.6.108.811-.263.811-.567s-.014-1.894-.014-2.879c0,0-3.282.7-3.971-1.4,0,0-.535-1.364-1.3-1.716,0,0-1.074-.736.075-.722a2.475,2.475,0,0,1,1.81,1.21,2.478,2.478,0,0,0,3.418.98,2.606,2.606,0,0,1,.75-1.58c-2.621-.291-5.265-.67-5.265-5.181A3.553,3.553,0,0,1,5.364,8.6,4.43,4.43,0,0,1,5.486,5.42c.98-.3,3.235,1.266,3.235,1.266a11.076,11.076,0,0,1,5.889,0S16.865,5.11,17.845,5.42A4.428,4.428,0,0,1,17.967,8.6a3.645,3.645,0,0,1,1.21,2.762c0,4.525-2.762,4.886-5.383,5.181a2.773,2.773,0,0,1,.8,2.176c0,1.58-.014,3.535-.014,3.92,0,.3.216.675.811.567A11.647,11.647,0,0,0,23.256,12,11.5,11.5,0,0,0,11.478.563ZM4.557,16.734c-.061.047-.047.155.033.244s.183.108.244.047.047-.155-.033-.244S4.618,16.673,4.557,16.734Zm-.506-.38c-.033.061.014.136.108.183a.14.14,0,0,0,.2-.033c.033-.061-.014-.136-.108-.183C4.159,16.293,4.084,16.307,4.051,16.354ZM5.57,18.023c-.075.061-.047.2.061.291.108.108.244.122.3.047s.033-.2-.061-.291C5.772,17.962,5.631,17.948,5.57,18.023Zm-.535-.689c-.075.047-.075.169,0,.277s.2.155.263.108a.214.214,0,0,0,0-.291C5.232,17.32,5.111,17.273,5.036,17.334Z" transform="translate(9 5.44)" fill="#00d6ff"/>
  </g>
</svg>
