<svg xmlns="http://www.w3.org/2000/svg" xmlns:xlink="http://www.w3.org/1999/xlink" width="42.006" height="42.006" viewBox="0 0 42.006 42.006">
  <defs>
    <filter id="Icon_simple-instagram" x="0" y="0" width="42.006" height="42.006" filterUnits="userSpaceOnUse">
      <feOffset dy="3" input="SourceAlpha"/>
      <feGaussianBlur stdDeviation="3" result="blur"/>
      <feFlood flood-opacity="0.161"/>
      <feComposite operator="in" in2="blur"/>
      <feComposite in="SourceGraphic"/>
    </filter>
  </defs>
  <g transform="matrix(1, 0, 0, 1, 0, 0)" filter="url(#Icon_simple-instagram)">
    <path id="Icon_simple-instagram-2" data-name="Icon simple-instagram" d="M12,0C8.742,0,8.335.015,7.055.072A8.851,8.851,0,0,0,4.141.63,5.878,5.878,0,0,0,2.014,2.014,5.856,5.856,0,0,0,.63,4.141,8.825,8.825,0,0,0,.072,7.055C.012,8.335,0,8.742,0,12s.015,3.668.072,4.948A8.856,8.856,0,0,0,.63,19.865a5.886,5.886,0,0,0,1.384,2.127,5.869,5.869,0,0,0,2.127,1.384,8.862,8.862,0,0,0,2.914.558c1.28.06,1.687.072,4.948.072s3.668-.015,4.948-.072a8.882,8.882,0,0,0,2.914-.558,6.134,6.134,0,0,0,3.511-3.511,8.856,8.856,0,0,0,.558-2.914c.06-1.28.072-1.687.072-4.948s-.015-3.668-.072-4.948a8.877,8.877,0,0,0-.558-2.914,5.891,5.891,0,0,0-1.384-2.127A5.848,5.848,0,0,0,19.865.63,8.83,8.83,0,0,0,16.951.072C15.671.012,15.264,0,12,0Zm0,2.161c3.2,0,3.586.016,4.851.071a6.613,6.613,0,0,1,2.228.415A3.95,3.95,0,0,1,21.36,4.924a6.627,6.627,0,0,1,.413,2.228c.057,1.266.07,1.646.07,4.851s-.015,3.586-.074,4.851a6.755,6.755,0,0,1-.421,2.228,3.811,3.811,0,0,1-.9,1.382,3.745,3.745,0,0,1-1.38.9,6.676,6.676,0,0,1-2.236.413c-1.274.057-1.649.07-4.86.07s-3.587-.015-4.86-.074a6.806,6.806,0,0,1-2.237-.421,3.717,3.717,0,0,1-1.379-.9,3.645,3.645,0,0,1-.9-1.38,6.812,6.812,0,0,1-.42-2.236c-.045-1.26-.061-1.649-.061-4.845s.016-3.587.061-4.862A6.8,6.8,0,0,1,2.6,4.891,3.558,3.558,0,0,1,3.5,3.51a3.55,3.55,0,0,1,1.379-.9A6.643,6.643,0,0,1,7.1,2.191c1.275-.045,1.65-.06,4.86-.06l.045.03Zm0,3.679A6.163,6.163,0,1,0,18.166,12,6.163,6.163,0,0,0,12,5.839ZM12,16a4,4,0,1,1,4-4A4,4,0,0,1,12,16ZM19.851,5.6a1.44,1.44,0,1,1-1.44-1.439A1.441,1.441,0,0,1,19.851,5.6Z" transform="translate(9 6)" fill="#00d6ff"/>
  </g>
</svg>
