<svg xmlns="http://www.w3.org/2000/svg" xmlns:xlink="http://www.w3.org/1999/xlink" width="39.005" height="39.005" viewBox="0 0 39.005 39.005">
  <defs>
    <filter id="Icon_awesome-linkedin-in" x="0" y="0" width="39.005" height="39.005" filterUnits="userSpaceOnUse">
      <feOffset dy="3" input="SourceAlpha"/>
      <feGaussianBlur stdDeviation="3" result="blur"/>
      <feFlood flood-opacity="0.161"/>
      <feComposite operator="in" in2="blur"/>
      <feComposite in="SourceGraphic"/>
    </filter>
  </defs>
  <g transform="matrix(1, 0, 0, 1, 0, 0)" filter="url(#Icon_awesome-linkedin-in)">
    <path id="Icon_awesome-linkedin-in-2" data-name="Icon awesome-linkedin-in" d="M4.7,21.005H.347V6.982H4.7ZM2.522,5.069A2.534,2.534,0,1,1,5.044,2.523,2.543,2.543,0,0,1,2.522,5.069ZM21,21.005H16.655V14.179c0-1.627-.033-3.713-2.264-3.713-2.264,0-2.611,1.768-2.611,3.6v6.944H7.43V6.982h4.177V8.895h.061a4.576,4.576,0,0,1,4.12-2.265C20.195,6.63,21,9.532,21,13.3v7.7Z" transform="translate(9 6)" fill="#00d6ff"/>
  </g>
</svg>
