<svg xmlns="http://www.w3.org/2000/svg" xmlns:xlink="http://www.w3.org/1999/xlink" width="39.475" height="49.475" viewBox="0 0 39.475 49.475">
  <defs>
    <filter id="Icon_material-location-on" x="0" y="0" width="39.475" height="49.475" filterUnits="userSpaceOnUse">
      <feOffset dy="3" input="SourceAlpha"/>
      <feGaussianBlur stdDeviation="3" result="blur"/>
      <feFlood flood-opacity="0.161"/>
      <feComposite operator="in" in2="blur"/>
      <feComposite in="SourceGraphic"/>
    </filter>
  </defs>
  <g transform="matrix(1, 0, 0, 1, 0, 0)" filter="url(#Icon_material-location-on)">
    <path id="Icon_material-location-on-2" data-name="Icon material-location-on" d="M17.238,3A9.934,9.934,0,0,0,7.5,13.132c0,7.6,9.738,18.817,9.738,18.817s9.738-11.218,9.738-18.817A9.934,9.934,0,0,0,17.238,3Zm0,13.751a3.552,3.552,0,0,1-3.478-3.619,3.481,3.481,0,1,1,6.956,0A3.552,3.552,0,0,1,17.238,16.751Z" transform="translate(2.5 4)" fill="none" stroke="#01d1f9" stroke-width="2"/>
  </g>
</svg>
